# xmcd
#
# Track frame offsets: 
#        150
#        16845
#        32102
#        43485
#        57887
#        70177
#        82532
#        96550
#        107417
#        119530
#        136110
#        151735
#        166422
#        183552
#        200725
#        215820
#        232427
#        244985
#        263970
#        279642
#        298172
#        311257
#
# Disc length: 4345 seconds
#
# Revision: 1
# Processed by: cddbd v1.5.2PL0 Copyright (c) Steve Scherf et al.
# Submitted via: ExactAudioCopy v0.95b4
#
DISCID=4c10f716
DTITLE=Joe Tex - King of downhome soul
DYEAR=1900
DGENRE=Soul
TTITLE0=Your right, Ray Charles
TTITLE1=You need me, baby
TTITLE2=The dark end of the street
TTITLE3=Woman like that, yeah
TTITLE4=Keep the one you got
TTITLE5=The same things it took to get me
TTITLE6=I'll never do you wrong
TTITLE7=Take the fifth amendment
TTITLE8=Sweet, sweet woman
TTITLE9=We can't sit down
TTITLE10=Buying a book
TTITLE11=Sure is good
TTITLE12=That's the way
TTITLE13=Anything you wanna know
TTITLE14=The only way
TTITLE15=Grandma Mary
TTITLE16=Take my baby a little love
TTITLE17=I can see everybodys baby (but I can't see mine)
TTITLE18=She said yeah
TTITLE19=When a woman stops loving a man
TTITLE20=Woman stealer
TTITLE21=funny how time slips away
EXTD=
EXTT0=
EXTT1=
EXTT2=
EXTT3=
EXTT4=
EXTT5=
EXTT6=
EXTT7=
EXTT8=
EXTT9=
EXTT10=
EXTT11=
EXTT12=
EXTT13=
EXTT14=
EXTT15=
EXTT16=
EXTT17=
EXTT18=
EXTT19=
EXTT20=
EXTT21=
PLAYORDER=
